<svg xmlns="http://www.w3.org/2000/svg" width="50" height="50" viewBox="0 0 50 50">
  <g fill="none" fill-rule="evenodd">
    <circle cx="25" cy="25" r="23" stroke="#571CB0" stroke-width="4"/>
    <path fill="#571CB0" d="M34.923728,31.082548 C34.923728,30.6686278 34.7581599,30.2547075 34.4601373,29.9566849 L29.5924351,25.0889827 L34.4601373,20.2212804 C34.7581599,19.9232578 34.923728,19.5093376 34.923728,19.0954173 C34.923728,18.681497 34.7581599,18.2675768 34.4601373,17.9695542 L32.2084111,15.717828 C31.9103885,15.4198054 31.4964683,15.2542373 31.082548,15.2542373 C30.6686278,15.2542373 30.2547075,15.4198054 29.9566849,15.717828 L25.0889827,20.5855302 L20.2212804,15.717828 C19.9232578,15.4198054 19.5093376,15.2542373 19.0954173,15.2542373 C18.681497,15.2542373 18.2675768,15.4198054 17.9695542,15.717828 L15.717828,17.9695542 C15.4198054,18.2675768 15.2542373,18.681497 15.2542373,19.0954173 C15.2542373,19.5093376 15.4198054,19.9232578 15.717828,20.2212804 L20.5855302,25.0889827 L15.717828,29.9566849 C15.4198054,30.2547075 15.2542373,30.6686278 15.2542373,31.082548 C15.2542373,31.4964683 15.4198054,31.9103885 15.717828,32.2084111 L17.9695542,34.4601373 C18.2675768,34.7581599 18.681497,34.923728 19.0954173,34.923728 C19.5093376,34.923728 19.9232578,34.7581599 20.2212804,34.4601373 L25.0889827,29.5924351 L29.9566849,34.4601373 C30.2547075,34.7581599 30.6686278,34.923728 31.082548,34.923728 C31.4964683,34.923728 31.9103885,34.7581599 32.2084111,34.4601373 L34.4601373,32.2084111 C34.7581599,31.9103885 34.923728,31.4964683 34.923728,31.082548 Z"/>
  </g>
</svg>
