<?xml version="1.0" encoding="utf-8"?>
<!-- Generator: Adobe Illustrator 19.2.0, SVG Export Plug-In . SVG Version: 6.00 Build 0)  -->
<svg version="1.1" id="Capa_1" xmlns="http://www.w3.org/2000/svg" xmlns:xlink="http://www.w3.org/1999/xlink" x="0px" y="0px"
	 viewBox="0 0 138.5 46.1" style="enable-background:new 0 0 138.5 46.1;" xml:space="preserve">
<style type="text/css">
	.st0{fill:#FFFFFF;stroke:#FFFFFF;stroke-width:3;stroke-miterlimit:10;}
	.st1{fill:#353535;}
	.st2{fill:#D87F1A;}
	.st3{font-family:'Skia-Regular';}
	.st4{font-size:43.7457px;}
	.st5{fill-rule:evenodd;clip-rule:evenodd;fill:#D87F1A;}
</style>
<g>
	<path class="st0" d="M18.7,34.7l-0.4,2.7c-0.1,0-0.3,0-0.7,0c-0.4,0-0.7,0-1,0c-2.9,0-5.1-0.6-6.6-1.8c-1.5-1.2-2.2-3.1-2.2-5.6
		c0-1.6,0-3.3,0-5.1s0-4.1,0-6.7H4.2v-2.5H8v-5.1h3.1v5.1h7.6v2.5h-7.6c0,0.3,0,1.2,0,2.7s0,2.6,0,3.3c0,0.6,0,1.3,0,2.2
		c0,0.9,0,1.9,0,3.1c0,1.9,0.5,3.2,1.5,4c1,0.8,2.5,1.2,4.6,1.2c0.3,0,0.6,0,0.9,0C18.4,34.7,18.6,34.7,18.7,34.7z"/>
	<path class="st0" d="M36.6,18.2c-0.8,0.2-2,0.6-3.6,1.2c-1.6,0.6-3.5,1.4-5.6,2.4c0,0.2,0,0.9,0,2.1c0,1.3,0,2.5,0,3.6
		c0,1.7,0,3.7,0.1,6c0,2.3,0.1,3.6,0.1,3.8h-3.4c0-0.2,0-1,0-2.4c0-1.4,0-3.7,0-6.9c0-1.3,0-3.2,0-5.6c0-2.4,0-4.6-0.1-6.7h3.3V19
		l0,0c1.6-0.9,3.2-1.7,4.8-2.4s2.8-1.1,3.8-1.4L36.6,18.2z"/>
	<path class="st0" d="M55.8,25.1c0,3.5,0,6.4,0,8.6c0,2.2,0,3.4,0,3.6c-0.1,0-0.8,0.1-2,0.2c-1.2,0.1-2.7,0.1-4.6,0.1
		c-1.2,0-2.3-0.1-3.5-0.3c-1.2-0.2-2.2-0.5-3.1-0.9c-1.1-0.5-2.1-1.2-2.8-2.2c-0.7-0.9-1.1-2-1.1-3.3c0-1.4,0.4-2.5,1.2-3.5
		c0.8-1,2-1.8,3.5-2.4c0.9-0.4,2.2-0.7,3.7-1c1.5-0.3,3.3-0.5,5.3-0.7c-0.1-1.1-0.4-2-0.8-2.7c-0.5-0.7-1.2-1.3-2.1-1.6
		c-0.6-0.3-1.3-0.4-2.1-0.5c-0.8-0.1-1.7-0.2-2.7-0.2c-0.6,0-1.2,0-1.6,0c-0.4,0-1.1,0.1-1.8,0.1l0.3-2.8c0.2,0,0.6,0,1.3-0.1
		s1.5-0.1,2.6-0.1c1.7,0,3.2,0.2,4.5,0.5c1.3,0.3,2.4,0.9,3.3,1.7c0.8,0.7,1.4,1.7,1.8,2.7S55.8,23.1,55.8,25.1z M52.5,30.3
		c0-0.5,0-1.1,0-1.8c0-0.7,0-1.6,0-2.6c-0.6,0-1.7,0.2-3.3,0.4s-2.9,0.5-4,1c-0.8,0.3-1.5,0.7-2.1,1.3c-0.6,0.6-0.9,1.3-0.9,2.2
		c0,1,0.3,1.7,0.8,2.3c0.5,0.6,1.2,1,2.2,1.4c0.7,0.2,1.5,0.4,2.3,0.5c0.8,0.1,1.7,0.2,2.7,0.2c0.3,0,0.6,0,1,0s0.8,0,1.3,0
		c0-0.1,0-0.6,0-1.4C52.5,32.9,52.5,31.7,52.5,30.3z"/>
	<path class="st0" d="M81.1,37.3h-3.4c0-0.4,0-1.7,0.1-4c0-2.2,0-3.6,0-4.1c0-0.7,0-1.8,0-3.3c0-1.4,0-2.5,0-3.2
		c0-1.6-0.4-2.8-0.9-3.5c-0.6-0.7-1.6-1.1-3-1.1c-0.9,0-1.9,0.3-3.2,0.8c-1.3,0.5-2.6,1.2-3.9,2c0,0.2,0,1,0,2.5s0,2.9,0,4.2
		c0,1.7,0,3.6,0.1,6c0,2.3,0.1,3.6,0.1,3.7h-3.4c0-0.1,0-1,0-2.6c0-1.6,0-4.1,0-7.3c0-1.5,0-3.2,0-5.3c0-2,0-4.1-0.1-6.4h3.3l0,2.5
		l0,0c2-1.1,3.7-1.9,5-2.4s2.4-0.7,3.3-0.7c1.8,0,3.3,0.6,4.4,1.7c1.1,1.1,1.7,2.7,1.7,4.7c0,1.8,0,3.3,0,4.6c0,1.3,0,2.4,0,3.2
		c0,1.3,0,2.9,0.1,4.9C81.1,36.2,81.1,37.2,81.1,37.3z"/>
	<path class="st0" d="M100.6,31.1c0,1.1-0.3,2-0.8,2.8c-0.5,0.8-1.2,1.5-2,2c-0.9,0.5-1.9,1-3.1,1.2c-1.2,0.3-2.5,0.4-3.9,0.4
		c-0.7,0-1.4,0-2.2-0.1c-0.7-0.1-1.2-0.1-1.3-0.1l-0.1-2.8c0.1,0,0.6,0.1,1.5,0.1c0.9,0.1,1.7,0.1,2.6,0.1c0.5,0,1.1,0,1.9-0.1
		c0.8-0.1,1.4-0.2,1.9-0.5c0.7-0.3,1.2-0.7,1.6-1.2s0.5-1,0.5-1.6c0-0.6-0.1-1.1-0.4-1.4c-0.3-0.4-0.7-0.7-1.2-1.1
		c-0.6-0.4-1.3-0.8-2.3-1.2c-1-0.4-1.8-0.9-2.5-1.2c-1-0.6-1.7-1.3-2.2-2.1c-0.5-0.8-0.8-1.7-0.8-2.8c0-1.1,0.3-2,0.9-2.8
		c0.6-0.8,1.4-1.5,2.3-2c0.8-0.5,1.8-0.8,2.8-0.9s2-0.2,3-0.2c0.9,0,1.6,0,2.1,0c0.6,0,0.9,0,1,0l0.2,2.8c-0.1,0-0.5,0-1.3-0.1
		c-0.8-0.1-1.6-0.1-2.6-0.1c-0.7,0-1.3,0.1-1.9,0.2c-0.6,0.1-1.1,0.3-1.5,0.5c-0.6,0.3-1.1,0.7-1.3,1.1c-0.3,0.4-0.4,0.9-0.4,1.3
		c0,0.6,0.2,1.1,0.6,1.5c0.4,0.4,0.8,0.8,1.3,1c0.6,0.3,1.4,0.7,2.4,1.2c1,0.5,1.7,0.8,2.2,1.1c1,0.6,1.8,1.3,2.3,2.1
		C100.3,29.1,100.6,30,100.6,31.1z"/>
</g>
<g id="vm17Ys.tif">
	
		<image style="overflow:visible;" width="140" height="54" id="Layer_0_1_" xlink:href="F484FF307998163C.png"  transform="matrix(1 0 0 1 -3.0002 58.8669)">
	</image>
</g>
<rect x="235.2" y="1.4" class="st1" width="36.5" height="103.5"/>
<rect x="212" y="155.4" class="st2" width="36.5" height="103.5"/>
<text transform="matrix(1 0 0 1 104.8953 37.6774)" class="st0 st3 st4">it</text>
<g>
	<path class="st5" d="M87.6-76.2c-1.8-4.7-7.2-7-11.7-4.9c-4.6,2.1-6.5,7.5-4.1,12c1.1,2,2.3,4,3.4,6c1.4,2.3,2.7,4.7,4.3,7.5
		c0.2-0.4,0.3-0.6,0.4-0.8c2.4-4.2,4.8-8.4,7.2-12.6C88.3-71.3,88.5-73.7,87.6-76.2L87.6-76.2z"/>
	<path class="st5" d="M79.3-70L79.3-70c-2.3-0.1-4.1-2-4.1-4.3c0.1-2.3,2-4.1,4.3-4.1c2.3,0.1,4.1,2,4.1,4.3
		C83.6-71.8,81.6-70,79.3-70L79.3-70z"/>
</g>
</svg>
