<?xml version="1.0" encoding="utf-8"?>
<!-- Generator: Adobe Illustrator 19.2.0, SVG Export Plug-In . SVG Version: 6.00 Build 0)  -->
<svg version="1.1" id="Capa_1" xmlns="http://www.w3.org/2000/svg" xmlns:xlink="http://www.w3.org/1999/xlink" x="0px" y="0px"
	 viewBox="0 0 30 30" style="enable-background:new 0 0 30 30;" xml:space="preserve">
<style type="text/css">
	.st0{fill:#FFFFFF;stroke:#FFFFFF;stroke-width:3;stroke-miterlimit:10;}
	.st1{fill:#353535;}
	.st2{fill:#D87F1A;}
	.st3{fill-rule:evenodd;clip-rule:evenodd;fill:#D87F1A;}
</style>
<g>
	<path class="st0" d="M-45.6,118.4l-0.4,2.7c-0.1,0-0.3,0-0.7,0c-0.4,0-0.7,0-1,0c-2.9,0-5.1-0.6-6.6-1.8c-1.5-1.2-2.2-3.1-2.2-5.6
		c0-1.6,0-3.3,0-5.1s0-4.1,0-6.7h-3.6v-2.5h3.8v-5.1h3.1v5.1h7.6v2.5h-7.6c0,0.3,0,1.2,0,2.7s0,2.6,0,3.3c0,0.6,0,1.3,0,2.2
		c0,0.9,0,1.9,0,3.1c0,1.9,0.5,3.2,1.5,4c1,0.8,2.5,1.2,4.6,1.2c0.3,0,0.6,0,0.9,0C-46,118.4-45.7,118.4-45.6,118.4z"/>
	<path class="st0" d="M-27.7,101.9c-0.8,0.2-2,0.6-3.6,1.2c-1.6,0.6-3.5,1.4-5.6,2.4c0,0.2,0,0.9,0,2.1c0,1.3,0,2.5,0,3.6
		c0,1.7,0,3.7,0.1,6c0,2.3,0.1,3.6,0.1,3.8h-3.4c0-0.2,0-1,0-2.4c0-1.4,0-3.7,0-6.9c0-1.3,0-3.2,0-5.6c0-2.4,0-4.6-0.1-6.7h3.3v3.2
		l0,0c1.6-0.9,3.2-1.7,4.8-2.4s2.8-1.1,3.8-1.4L-27.7,101.9z"/>
	<path class="st0" d="M-8.6,108.9c0,3.5,0,6.4,0,8.6c0,2.2,0,3.4,0,3.6c-0.1,0-0.8,0.1-2,0.2c-1.2,0.1-2.7,0.1-4.6,0.1
		c-1.2,0-2.3-0.1-3.5-0.3c-1.2-0.2-2.2-0.5-3.1-0.9c-1.1-0.5-2.1-1.2-2.8-2.2c-0.7-0.9-1.1-2-1.1-3.3c0-1.4,0.4-2.5,1.2-3.5
		c0.8-1,2-1.8,3.5-2.4c0.9-0.4,2.2-0.7,3.7-1c1.5-0.3,3.3-0.5,5.3-0.7c-0.1-1.1-0.4-2-0.8-2.7c-0.5-0.7-1.2-1.3-2.1-1.6
		c-0.6-0.3-1.3-0.4-2.1-0.5c-0.8-0.1-1.7-0.2-2.7-0.2c-0.6,0-1.2,0-1.6,0c-0.4,0-1.1,0.1-1.8,0.1l0.3-2.8c0.2,0,0.6,0,1.3-0.1
		s1.5-0.1,2.6-0.1c1.7,0,3.2,0.2,4.5,0.5c1.3,0.3,2.4,0.9,3.3,1.7c0.8,0.7,1.4,1.7,1.8,2.7S-8.6,106.8-8.6,108.9z M-11.8,114
		c0-0.5,0-1.1,0-1.8c0-0.7,0-1.6,0-2.6c-0.6,0-1.7,0.2-3.3,0.4s-2.9,0.5-4,1c-0.8,0.3-1.5,0.7-2.1,1.3c-0.6,0.6-0.9,1.3-0.9,2.2
		c0,1,0.3,1.7,0.8,2.3c0.5,0.6,1.2,1,2.2,1.4c0.7,0.2,1.5,0.4,2.3,0.5c0.8,0.1,1.7,0.2,2.7,0.2c0.3,0,0.6,0,1,0s0.8,0,1.3,0
		c0-0.1,0-0.6,0-1.4C-11.8,116.6-11.8,115.4-11.8,114z"/>
	<path class="st0" d="M16.8,121h-3.4c0-0.4,0-1.7,0.1-4c0-2.2,0-3.6,0-4.1c0-0.7,0-1.8,0-3.3c0-1.4,0-2.5,0-3.2
		c0-1.6-0.4-2.8-0.9-3.5c-0.6-0.7-1.6-1.1-3-1.1c-0.9,0-1.9,0.3-3.2,0.8c-1.3,0.5-2.6,1.2-3.9,2c0,0.2,0,1,0,2.5s0,2.9,0,4.2
		c0,1.7,0,3.6,0.1,6c0,2.3,0.1,3.6,0.1,3.7h-3.4c0-0.1,0-1,0-2.6c0-1.6,0-4.1,0-7.3c0-1.5,0-3.2,0-5.3c0-2,0-4.1-0.1-6.4h3.3l0,2.5
		l0,0c2-1.1,3.7-1.9,5-2.4s2.4-0.7,3.3-0.7c1.8,0,3.3,0.6,4.4,1.7c1.1,1.1,1.7,2.7,1.7,4.7c0,1.8,0,3.3,0,4.6c0,1.3,0,2.4,0,3.2
		c0,1.3,0,2.9,0.1,4.9C16.8,119.9,16.8,120.9,16.8,121z"/>
	<path class="st0" d="M36.2,114.8c0,1.1-0.3,2-0.8,2.8c-0.5,0.8-1.2,1.5-2,2c-0.9,0.5-1.9,1-3.1,1.2c-1.2,0.3-2.5,0.4-3.9,0.4
		c-0.7,0-1.4,0-2.2-0.1c-0.7-0.1-1.2-0.1-1.3-0.1l-0.1-2.8c0.1,0,0.6,0.1,1.5,0.1c0.9,0.1,1.7,0.1,2.6,0.1c0.5,0,1.1,0,1.9-0.1
		c0.8-0.1,1.4-0.2,1.9-0.5c0.7-0.3,1.2-0.7,1.6-1.2s0.5-1,0.5-1.6c0-0.6-0.1-1.1-0.4-1.4c-0.3-0.4-0.7-0.7-1.2-1.1
		c-0.6-0.4-1.3-0.8-2.3-1.2c-1-0.4-1.8-0.9-2.5-1.2c-1-0.6-1.7-1.3-2.2-2.1c-0.5-0.8-0.8-1.7-0.8-2.8c0-1.1,0.3-2,0.9-2.8
		c0.6-0.8,1.4-1.5,2.3-2c0.8-0.5,1.8-0.8,2.8-0.9s2-0.2,3-0.2c0.9,0,1.6,0,2.1,0c0.6,0,0.9,0,1,0l0.2,2.8c-0.1,0-0.5,0-1.3-0.1
		c-0.8-0.1-1.6-0.1-2.6-0.1c-0.7,0-1.3,0.1-1.9,0.2c-0.6,0.1-1.1,0.3-1.5,0.5c-0.6,0.3-1.1,0.7-1.3,1.1c-0.3,0.4-0.4,0.9-0.4,1.3
		c0,0.6,0.2,1.1,0.6,1.5c0.4,0.4,0.8,0.8,1.3,1c0.6,0.3,1.4,0.7,2.4,1.2c1,0.5,1.7,0.8,2.2,1.1c1,0.6,1.8,1.3,2.3,2.1
		C36,112.8,36.2,113.7,36.2,114.8z"/>
</g>
<g id="vm17Ys.tif">
	
		<image style="overflow:visible;" width="140" height="54" id="Layer_0_1_" xlink:href="9B5537EDC1566E07.png"  transform="matrix(1 0 0 1 -67.3507 142.5848)">
	</image>
</g>
<rect x="170.9" y="85.1" class="st1" width="36.5" height="103.5"/>
<rect x="147.6" y="239.2" class="st2" width="36.5" height="103.5"/>
<text transform="matrix(1 0 0 1 40.5449 121.3954)" class="st0" style="font-family:'Skia-Regular'; font-size:43.7457px;">it</text>
<g>
	<path class="st3" d="M23.2,7.6c-1.8-4.7-7.2-7-11.7-4.9c-4.6,2.1-6.5,7.5-4.1,12c1.1,2,2.3,4,3.4,6c1.4,2.3,2.7,4.7,4.3,7.5
		c0.2-0.4,0.3-0.6,0.4-0.8c2.4-4.2,4.8-8.4,7.2-12.6C24,12.4,24.1,10,23.2,7.6L23.2,7.6z"/>
	<path class="st3" d="M15,13.7L15,13.7c-2.3-0.1-4.1-2-4.1-4.3c0.1-2.3,2-4.1,4.3-4.1c2.3,0.1,4.1,2,4.1,4.3
		C19.2,11.9,17.3,13.7,15,13.7L15,13.7z"/>
</g>
</svg>
